<?xml version="1.0" encoding="UTF-8" standalone="no"?>
<svg width="472px" height="110px" viewBox="0 0 472 110" version="1.1" xmlns="http://www.w3.org/2000/svg" xmlns:xlink="http://www.w3.org/1999/xlink">
    <defs>
        <polygon id="path-1" points="2.08631184e-20 0.019550303 2.08631184e-20 107.356872 207.135522 107.356872 207.135522 0.019550303 0 0.019550303"></polygon>
    </defs>
    <g id="Page-1" stroke="none" stroke-width="1" fill="none" fill-rule="evenodd">
        <g id="lg-1280-1440" transform="translate(-423.000000, -320.000000)">
            <g id="Group-5" transform="translate(207.000000, 95.000000)">
                <g id="Group" transform="translate(216.000000, 224.751515)">
                    <g id="Group-3" transform="translate(0.000000, 0.846359)">
                        <mask id="mask-2" fill="white">
                            <use xlink:href="#path-1"></use>
                        </mask>
                        <g id="Clip-2"></g>
                        <path d="M53.9933807,46.6831988 C53.6701011,45.3901079 53.023542,44.3125321 52.0537034,43.4504715 L50.1124866,44.097017 C47.5262502,53.5796836 44.5089744,65.2190412 43.8624153,66.1888594 C41.5994585,69.8541564 28.6667371,76.5351261 22.8477052,76.5351261 C16.3805748,76.5351261 -0.000461827928,60.5854655 -0.000461827928,57.3527382 C-0.000461827928,55.5208594 7.65202694,49.5926533 10.0227436,49.5926533 C10.8848224,49.5926533 11.4236217,50.0236836 11.7469012,50.6702291 C14.2253778,55.4115624 21.3390673,66.5121321 23.8175438,66.5121321 C25.110662,66.5121321 27.9124181,64.5724958 28.5589772,63.1716473 C29.0977765,62.0940715 32.8709107,48.2995624 35.1338675,39.7867139 C37.7201039,30.4102655 39.5520213,22.7579382 40.7373797,19.3096958 C42.0304979,15.5381806 43.9701752,14.0295745 44.1856949,13.81252 C43.7546555,13.921817 34.056269,16.4002412 27.265859,20.1717564 C26.2960204,20.7105442 25.9727408,21.78812 25.9727408,22.7579382 C25.9727408,25.2363624 28.1279378,32.2421442 28.1279378,33.7507503 C28.1279378,35.2593564 22.5244256,38.3843261 20.800268,38.3843261 C18.645071,38.3843261 10.6693027,27.1775382 10.6693027,24.4835988 C10.6693027,20.7105442 19.6133703,10.0410048 22.955465,9.39445939 C30.175375,7.99361091 37.1813047,6.70052 48.2821086,4.00658061 C49.5736874,3.68330788 53.3468216,0.019550303 55.178739,0.019550303 C57.6572155,0.019550303 64.3398657,5.51518667 64.3398657,7.1315503 C64.3398657,8.10290788 59.3813731,12.0883988 58.4115345,14.9993927 C57.4416958,17.5855745 55.0709792,25.8829079 52.4847428,35.2593564 C53.9933807,34.5050533 55.0709792,33.6429927 55.7175383,32.8886897 C63.2622672,23.5122412 72.0985749,9.17894424 76.4105083,4.32985333 C77.2725871,3.25227758 84.492497,0.019550303 85.8933751,0.019550303 C87.2942531,0.019550303 92.7915449,6.80827758 92.7915449,7.99361091 C92.7915449,8.85567152 88.4796115,11.3356352 87.6175327,12.0883988 C84.0614576,15.2149079 72.4218544,30.1947503 65.3097043,37.0927745 C64.7693656,37.630023 64.124346,38.0610533 63.2622672,38.6013806 C64.2321058,39.5696594 65.0926452,40.541017 65.6329839,41.9403261 C68.7580195,50.3469564 75.9779295,75.2420352 78.5641658,81.384217 C81.3674614,87.8512109 85.4623357,89.5753321 87.1864933,89.5753321 C90.4208282,89.5753321 101.304573,82.247817 105.077707,82.247817 C113.806255,82.247817 181.271618,92.4847867 189.461367,92.4847867 C194.527619,92.4847867 202.825128,87.9574291 204.118246,87.9574291 C205.088084,87.9574291 207.135522,90.2218776 207.135522,91.0839382 C207.135522,91.9459988 192.047603,107.356872 187.30617,107.356872 C175.989846,107.356872 111.435538,90.9761806 104.321849,90.9761806 C99.4726556,90.9761806 84.1692175,100.352629 80.3976227,100.352629 C76.9493075,100.352629 65.8485036,94.3166655 64.5553854,88.6055139 C60.9977709,72.8713685 55.8252981,53.4719261 53.9933807,46.6831988" id="Fill-1" fill="#002832" mask="url(#mask-2)"></path>
                    </g>
                    <path d="M108.301112,38.153417 C108.301112,37.6146291 107.331274,36.8603261 106.469195,36.8603261 C103.128639,36.8603261 97.4158279,47.5298655 96.4459893,52.0556836 C103.775198,50.9781079 108.301112,42.0342291 108.301112,38.153417 M102.80536,26.7295745 C108.301112,26.7295745 118.970877,32.1189927 118.970877,36.7525685 C118.970877,42.1404473 111.964947,59.9235261 104.743498,59.9235261 C100.540864,59.9235261 96.1227097,58.9537079 96.1227097,58.9537079 C96.1227097,58.9537079 95.4761506,60.3545564 95.4761506,63.1562533 C95.4761506,65.4191624 100.109824,67.7898291 102.58984,67.7898291 C108.408872,67.7898291 116.92344,65.7424352 123.92783,51.9479261 C123.92783,51.9479261 124.789909,50.0082897 126.190787,50.0082897 C127.591665,50.0082897 129.854622,51.7324109 129.854622,53.0255018 C129.854622,54.3185927 128.561503,56.797017 128.561503,56.797017 C121.233834,70.700823 111.857187,77.3817927 103.128639,77.3817927 C93.6442332,77.3817927 79.5261534,70.3760109 79.5261534,61.97092 C79.5261534,49.7927745 91.1657566,26.7295745 102.80536,26.7295745" id="Fill-4" fill="#002832"></path>
                    <path d="M150.757877,39.4469697 C150.757877,38.4771515 149.788039,37.2918182 149.03372,37.2918182 C147.417322,37.2918182 142.675889,40.4167879 141.273471,44.9426061 C138.473254,54.1035394 133.945801,71.5618061 133.514762,74.9022909 C133.299242,76.6264121 131.144045,77.3822545 129.635407,77.3822545 C125.970033,77.3822545 119.181162,74.0402303 119.181162,71.1307758 C119.181162,67.251503 132.113884,18.1078909 135.238919,8.51746667 C135.669959,6.90110303 137.394116,6.25455758 138.579475,6.25455758 C141.92157,6.25455758 149.464759,11.7501939 149.464759,13.5820727 C149.464759,14.3363758 149.14148,15.4139515 148.92596,16.2760121 C146.339723,25.3291879 144.723326,30.9325818 144.723326,30.9325818 C144.723326,30.9325818 151.619956,26.0834909 157.115708,26.0834909 C161.319882,26.0834909 167.246674,31.148097 167.246674,35.1366667 C167.246674,40.2012727 160.781083,60.8922667 160.781083,66.6049576 C160.781083,67.251503 161.643162,68.2213212 162.289721,68.2213212 C165.522516,68.2213212 171.343087,61.6465697 176.62332,51.9483879 C176.62332,51.9483879 177.593159,50.0087515 178.994037,50.0087515 C180.394915,50.0087515 182.657872,51.7328727 182.657872,53.0259636 C182.657872,54.3190545 181.256994,56.7974788 181.256994,56.7974788 C175.330202,67.5747758 169.078591,77.3822545 161.212122,77.3822545 C154.854291,77.3822545 145.154365,72.6393818 145.154365,68.0058061 C145.154365,61.1077818 150.757877,43.5417576 150.757877,39.4469697" id="Fill-6" fill="#002832"></path>
                    <path d="M187.718274,17.3542036 C187.718274,13.0439006 190.41227,5.17605818 194.830424,5.17605818 C197.74148,5.17605818 203.344992,7.22345212 203.344992,10.7794521 C203.344992,15.0912945 200.543236,22.9575976 196.231302,22.9575976 C193.321786,22.9575976 187.718274,20.9102036 187.718274,17.3542036 M182.545801,28.9935612 C182.975301,27.4849552 184.483939,26.7291127 186.856195,26.7291127 C189.011392,26.7291127 197.63218,31.7952582 197.63218,33.8426521 C197.63218,36.3210764 189.011392,59.8153067 189.011392,67.358337 C189.011392,67.7893673 189.765711,68.3281552 190.088991,68.3281552 C193.214027,68.3281552 198.817539,61.6471855 204.314831,51.9474642 C204.314831,51.9474642 205.176909,50.0078279 206.577787,50.0078279 C207.978665,50.0078279 210.241622,51.7334885 210.241622,53.02504 C210.241622,54.3181309 208.732984,56.7980945 208.732984,56.7980945 C202.913952,67.5753915 196.446822,77.3813309 188.688113,77.3813309 C182.652022,77.3813309 173.061395,72.8555127 173.061395,68.0048824 C173.061395,62.9402764 180.712345,35.6745309 182.545801,28.9935612" id="Fill-8" fill="#002832"></path>
                    <path d="M226.080781,26.9453976 L234.056549,26.9453976 C234.703108,26.9453976 235.349667,27.2686703 235.349667,27.9152158 C235.349667,29.8548521 232.977411,35.3504885 231.253254,35.3504885 L223.817824,35.3504885 C220.261749,47.5301733 216.488615,61.4309006 216.488615,63.9108642 C216.488615,67.2513491 219.61365,68.1134097 220.369509,68.1134097 C223.925584,68.1134097 229.421336,61.6464158 234.703108,51.9482339 C234.703108,51.9482339 235.671407,50.0085976 237.073825,50.0085976 C238.474703,50.0085976 240.73766,51.7327188 240.73766,53.0258097 C240.73766,54.3189006 239.336782,56.7973248 239.336782,56.7973248 C233.408451,67.5746218 227.050619,77.3821006 219.18415,77.3821006 C211.854941,77.3821006 200.754137,71.7771673 200.754137,66.3892885 C200.754137,63.4782945 204.310212,49.3620521 207.975587,35.3504885 L204.310212,35.3504885 C203.771413,35.3504885 203.124854,34.9209976 203.124854,34.2744521 C203.124854,32.9798218 205.60333,26.9453976 207.543008,26.9453976 L210.238543,26.9453976 C212.285981,19.4023673 213.794618,14.0129491 214.548937,11.6422824 C214.979977,10.1336764 215.949815,9.27161576 217.350693,9.27161576 C221.122288,9.27161576 228.882537,14.551737 228.882537,16.4913733 C228.882537,17.1379188 228.559257,18.8635794 228.451497,19.0790945 L226.080781,26.9453976 Z" id="Fill-10" fill="#002832"></path>
                    <path d="M256.468597,26.9453976 L264.442825,26.9453976 C265.090924,26.9453976 265.737483,27.2686703 265.737483,27.9152158 C265.737483,29.8548521 263.365227,35.3504885 261.641069,35.3504885 L254.20564,35.3504885 C250.648025,47.5301733 246.876431,61.4309006 246.876431,63.9108642 C246.876431,67.2513491 250.001466,68.1134097 250.757325,68.1134097 C254.3134,68.1134097 259.809152,61.6464158 265.090924,51.9482339 C265.090924,51.9482339 266.059223,50.0085976 267.461641,50.0085976 C268.862519,50.0085976 271.125476,51.7327188 271.125476,53.0258097 C271.125476,54.3189006 269.724598,56.7973248 269.724598,56.7973248 C263.796266,67.5746218 257.438435,77.3821006 249.571966,77.3821006 C242.242757,77.3821006 231.141953,71.7771673 231.141953,66.3892885 C231.141953,63.4782945 234.698028,49.3620521 238.363402,35.3504885 L234.698028,35.3504885 C234.159229,35.3504885 233.51267,34.9209976 233.51267,34.2744521 C233.51267,32.9798218 235.992686,26.9453976 237.930824,26.9453976 L240.626359,26.9453976 C242.673796,19.4023673 244.182434,14.0129491 244.936753,11.6422824 C245.367793,10.1336764 246.337631,9.27161576 247.738509,9.27161576 C251.511644,9.27161576 259.270353,14.551737 259.270353,16.4913733 C259.270353,17.1379188 258.947073,18.8635794 258.839313,19.0790945 L256.468597,26.9453976 Z" id="Fill-12" fill="#002832"></path>
                    <path d="M310.673956,6.36200727 C313.583472,6.36200727 318.324906,9.59473455 318.324906,12.2886739 C318.324906,16.0601891 315.630909,23.0659709 310.458437,23.0659709 C307.548921,23.0659709 302.805948,20.0487588 302.805948,17.1377648 C302.805948,12.9352194 305.930983,6.36200727 310.673956,6.36200727 M292.568762,6.36200727 C295.478278,6.36200727 300.219711,9.59473455 300.219711,12.2886739 C300.219711,16.0601891 297.525715,23.0659709 292.353242,23.0659709 C289.442187,23.0659709 284.700754,20.0487588 284.700754,17.1377648 C284.700754,12.9352194 287.825789,6.36200727 292.568762,6.36200727 M290.088746,37.3992679 C286.317151,37.3992679 277.696363,55.2885648 277.696363,64.7727709 C277.696363,66.0658618 278.881722,67.1434376 279.85156,67.1434376 C281.036919,67.1434376 285.239553,65.3115588 288.256829,59.06008 C290.412026,54.5342618 293.968101,43.1119588 293.968101,40.0932073 C293.968101,38.6923588 291.814443,37.3992679 290.088746,37.3992679 M321.773221,50.0084436 C323.175638,50.0084436 325.438595,51.7325648 325.438595,53.0256558 C325.438595,54.3187467 324.037717,56.7971709 324.037717,56.7971709 C318.109386,67.5744679 311.751555,77.3819467 303.991306,77.3819467 C299.142113,77.3819467 290.844604,74.0399224 289.334427,71.0227103 C289.334427,71.0227103 283.192116,77.3819467 277.373084,77.3819467 C272.414591,77.3819467 262.392925,70.59168 262.392925,64.7727709 C262.392925,50.6549891 274.677548,26.7297285 286.101632,26.7297285 C294.723959,26.7297285 300.327471,32.6579345 300.327471,32.6579345 C304.206826,32.6579345 310.673956,33.9510255 310.673956,36.6449648 C310.673956,40.41648 303.344747,57.8747467 303.344747,66.4968921 C303.344747,67.3589527 304.206826,68.3287709 305.068905,68.3287709 C308.842039,68.3287709 314.122271,61.6478012 319.402504,51.94808 C319.402504,51.94808 320.372343,50.0084436 321.773221,50.0084436" id="Fill-14" fill="#002832"></path>
                    <path d="M375.330636,97.6417564 C375.330636,98.2883018 376.947034,99.6891503 378.024632,99.6891503 C378.671191,99.6891503 385.244542,90.4219988 389.340956,84.4937927 C389.879755,83.7394897 391.927192,82.7696715 393.22031,82.7696715 C399.256401,82.7696715 447.537432,92.7926655 457.774618,92.7926655 C462.840871,92.7926655 467.474544,89.7754533 468.767662,89.7754533 C469.737501,89.7754533 471.677178,91.7150897 471.677178,92.7926655 C471.677178,93.8702412 460.362394,107.880265 455.619421,107.880265 C445.919495,107.880265 402.489197,93.4392109 398.500543,93.4392109 C395.052228,93.4392109 379.64103,110.143175 375.438396,110.143175 C372.096301,110.143175 359.919438,101.522568 359.919438,96.9952109 C359.919438,88.8040958 372.096301,41.9249321 372.096301,39.7697806 C372.096301,38.90772 371.020242,37.7223867 369.833344,37.7223867 C366.600549,37.7223867 362.936714,40.4163261 361.966875,43.218023 C359.703918,49.7927745 354.853186,71.8861564 354.314386,74.9033685 C353.991107,76.4104352 352.482469,77.3817927 350.327272,77.3817927 C347.741035,77.3817927 340.196307,74.0397685 340.196307,71.1303139 C340.196307,68.328617 347.202236,41.6016594 347.202236,39.2309927 C347.202236,38.6922048 346.340157,37.7223867 345.262559,37.7223867 C342.891842,37.7223867 338.795429,38.7999624 337.179031,42.8962897 C334.377275,50.0082897 329.420322,71.7768594 328.666003,74.9033685 C328.234963,76.304217 326.834085,77.3817927 324.677349,77.3817927 C322.091112,77.3817927 314.654143,74.1490655 314.654143,71.2380715 C314.654143,68.4363745 322.845431,36.3215382 325.108388,28.9924836 C325.648727,27.4838776 326.940306,26.7295745 329.312562,26.7295745 C332.006558,26.7295745 336.640232,32.0112352 336.640232,32.0112352 C336.640232,32.0112352 345.693598,26.7295745 351.51263,26.7295745 C356.686642,26.7295745 361.428076,32.7655382 361.428076,32.7655382 C361.428076,32.7655382 371.343521,26.7295745 377.378073,26.7295745 C381.903987,26.7295745 388.263357,31.1491745 388.263357,35.1362048 C388.263357,40.2008109 375.330636,87.6187624 375.330636,97.6417564" id="Fill-16" fill="#002832"></path>
                    <path d="M408.946167,68.2211673 C409.700486,68.2211673 410.347045,67.790137 411.209124,66.9280764 C410.347045,66.2815309 410.023766,65.6349855 410.023766,64.6636279 C410.023766,62.5100158 414.11864,57.1205976 417.352975,56.6895673 C420.046971,50.5473855 421.771129,44.1881491 421.771129,39.0157855 C421.771129,38.2614824 420.58577,36.5373612 418.430573,36.5373612 C414.765199,36.5373612 406.252171,53.0258097 406.252171,65.0961976 C406.252171,67.3591067 408.191848,68.2211673 408.946167,68.2211673 M438.798724,11.9655552 C439.984083,11.9655552 441.81754,14.3362218 441.81754,15.4137976 C441.81754,17.3549733 433.302972,24.2514582 429.637598,24.2514582 C424.680645,24.2514582 418.646093,19.72564 413.79536,19.72564 C411.209124,19.72564 408.515128,22.0963067 407.545289,22.0963067 C406.57545,22.0963067 404.528013,19.9411552 404.528013,18.6465248 C404.528013,16.7084279 413.041041,9.81040364 416.706416,9.81040364 C421.663369,9.81040364 427.374641,14.3362218 432.548653,14.3362218 C435.134889,14.3362218 437.828886,11.9655552 438.798724,11.9655552 M427.91344,70.0530461 C426.620322,70.0530461 425.111684,70.0530461 423.603046,69.9452885 C420.046971,74.6866218 415.628817,77.3821006 411.101364,77.3821006 C403.558175,77.3821006 390.086654,70.2685612 390.086654,62.5100158 C390.086654,47.5301733 400.32384,26.7298824 413.36586,26.7298824 C422.848727,26.7298824 434.272811,34.5977248 434.272811,41.2786945 C434.272811,46.9898461 432.440893,54.4266582 428.991039,61.5401976 C429.854657,61.8634703 430.716736,61.8634703 431.794334,61.8634703 C438.259925,61.8634703 443.326177,51.9482339 443.326177,51.9482339 C443.326177,51.9482339 444.294477,50.0085976 445.589134,50.0085976 C447.097772,50.0085976 449.468489,51.7327188 449.468489,53.0258097 C449.468489,54.3189006 447.959851,56.7973248 447.959851,56.7973248 C447.959851,56.7973248 440.522882,70.0530461 427.91344,70.0530461" id="Fill-18" fill="#002832"></path>
                </g>
            </g>
        </g>
    </g>
</svg>
