<?xml version="1.0" encoding="UTF-8" standalone="no"?>
<svg width="10px" height="14px" viewBox="0 0 9 17" version="1.1" xmlns="http://www.w3.org/2000/svg" xmlns:xlink="http://www.w3.org/1999/xlink">
    <path d="M8.676,0.126 L8.676,2.7735 L7.11,2.7735 C6.534,2.7735 6.144,2.8935 5.94,3.132 C5.736,3.372 5.634,3.732 5.634,4.2135 L5.634,6.12 L8.586,6.12 L8.19,9.0915 L5.634,9.0915 L5.634,16.722 L2.556,16.722 L2.556,9.0915 L0,9.0915 L0,6.12 L2.556,6.12 L2.556,3.924 C2.556,2.676 2.904,1.7115 3.6,1.0275 C4.296,0.3435 5.226,0 6.39,0 C7.374,0 8.136,0.042 8.676,0.126" id="Fill-1" stroke="none" fill="#FFF" fill-rule="evenodd"></path>
</svg>
