<?xml version="1.0" encoding="UTF-8" standalone="no"?>
<svg width="16px" height="12px" viewBox="0 0 12 16" version="1.1" xmlns="http://www.w3.org/2000/svg" xmlns:xlink="http://www.w3.org/1999/xlink">
    <g id="twitter" stroke="none" stroke-width="1" fill="none" fill-rule="evenodd">
        <path d="M16.3014545,1.57790909 C15.844,2.24554545 15.2876364,2.82045455 14.6323636,3.30263636 L14.6323636,3.72918182 C14.6323636,4.63172727 14.5025455,5.52809091 14.2429091,6.41827273 C13.9832727,7.30845455 13.5876364,8.16772727 13.056,8.99609091 C12.5243636,9.82445455 11.8876364,10.5477273 11.1458182,11.1659091 C10.404,11.7840909 9.51381818,12.291 8.47527273,12.6850909 C7.43672727,13.0822727 6.31781818,13.2661818 5.11854545,13.243 C3.25163636,13.243 1.54545455,12.7422727 0,11.7408182 C0.234909091,11.7779091 0.500727273,11.7964545 0.797454545,11.7964545 C2.35527273,11.7964545 3.74,11.3204545 4.95163636,10.3669091 C4.22218182,10.3437273 3.57309091,10.1211818 3.00436364,9.70081818 C2.43563636,9.28045455 2.04,8.73027273 1.81745455,8.04872727 C2.05236364,8.075 2.26254545,8.08736364 2.448,8.08736364 C2.74472727,8.08736364 3.04145455,8.04872727 3.33818182,7.97609091 C2.55927273,7.81536364 1.91636364,7.43209091 1.40945455,6.82627273 C0.902545455,6.22045455 0.649090909,5.50954545 0.649090909,4.69354545 L0.649090909,4.65645455 C1.11890909,4.91609091 1.62581818,5.05827273 2.16981818,5.083 C1.71236364,4.77390909 1.34763636,4.37827273 1.07563636,3.89609091 C0.803636364,3.41236364 0.667636364,2.87609091 0.667636364,2.28263636 C0.667636364,1.68918182 0.822181818,1.13281818 1.13127273,0.613545455 C1.972,1.63972727 2.98581818,2.46190909 4.17272727,3.08009091 C5.35963636,3.69827273 6.64545455,4.03827273 8.03018182,4.10009091 C7.96836364,3.84045455 7.93745455,3.587 7.93745455,3.33972727 C7.93745455,2.41245455 8.26509091,1.62736364 8.92036364,0.984454545 C9.57563636,0.341545455 10.3607273,0.0139090909 11.2756364,0 C12.2523636,0 13.0683636,0.353909091 13.7236364,1.05863636 C14.4778182,0.908727273 15.1825455,0.638272727 15.8378182,0.242636364 C15.5905455,1.03236364 15.1021818,1.65209091 14.3727273,2.09718182 C15.0156364,2.023 15.6585455,1.84990909 16.3014545,1.57790909" id="Fill-1" fill="#FFFFFF"></path>
    </g>
</svg>
