<?xml version="1.0" encoding="UTF-8" standalone="no"?>
<svg width="13px" height="13px" id="WhatsApp_Logo" data-name="WhatsApp Logo" viewBox="0 0 25 25" version="1.1" xmlns="http://www.w3.org/2000/svg" xmlns:xlink="http://www.w3.org/1999/xlink">
  <g id="WA_Logo" data-name="WA Logo">
    <path d="M21.36,3.63A12.46,12.46,0,0,0,.1,12.39a12.32,12.32,0,0,0,1.66,6.19L0,25l6.6-1.72a12.48,12.48,0,0,0,5.95,1.51h0A12.44,12.44,0,0,0,25,12.4,12.28,12.28,0,0,0,21.36,3.63ZM12.55,22.69h0a10.37,10.37,0,0,1-5.27-1.44L6.9,21,3,22.06l1-3.8-0.25-.39A10.29,10.29,0,0,1,12.56,2.09,10.3,10.3,0,1,1,12.55,22.69ZM18.23,15c-0.31-.15-1.84-0.9-2.13-1a0.49,0.49,0,0,0-.7.15c-0.21.31-.8,1-1,1.21a0.48,0.48,0,0,1-.67.08,8.5,8.5,0,0,1-2.5-1.54,9.34,9.34,0,0,1-1.73-2.14,0.45,0.45,0,0,1,.14-0.63c0.14-.14.31-0.36,0.47-0.54A2.11,2.11,0,0,0,10.43,10a0.57,0.57,0,0,0,0-.54c-0.08-.15-0.7-1.68-1-2.3a0.62,0.62,0,0,0-.7-0.53H8.15a1.15,1.15,0,0,0-.83.39A3.47,3.47,0,0,0,6.23,9.64a6,6,0,0,0,1.27,3.2,13.84,13.84,0,0,0,5.31,4.67,17.92,17.92,0,0,0,1.77.65,4.28,4.28,0,0,0,2,.12,3.2,3.2,0,0,0,2.1-1.47,2.58,2.58,0,0,0,.18-1.47A1.57,1.57,0,0,0,18.23,15Z" transform="translate(0 0)" style="fill: #FFFFFF;fill-rule: evenodd"/>
  </g>
</svg>
